<?xml version="1.0" standalone="no"?>
<!DOCTYPE svg PUBLIC "-//W3C//DTD SVG 20010904//EN"
 "http://www.w3.org/TR/2001/REC-SVG-20010904/DTD/svg10.dtd">
<svg version="1.0" xmlns="http://www.w3.org/2000/svg"
 width="500.000000pt" height="500.000000pt" viewBox="0 0 500.000000 500.000000"
 preserveAspectRatio="xMidYMid meet">

<g transform="translate(0.000000,500.000000) scale(0.100000,-0.100000)"
fill="#000000" stroke="none">
<path d="M0 2500 l0 -2500 2500 0 2500 0 0 2500 0 2500 -2500 0 -2500 0 0
-2500z m2845 1175 c23 -22 25 -32 25 -108 l0 -83 -312 -33 c-172 -18 -331 -37
-353 -41 -22 -4 195 -8 482 -9 l523 -1 32 -29 c33 -29 33 -31 36 -130 l4 -101
-179 -2 -178 -3 0 -30 0 -30 219 -3 c187 -2 223 -5 238 -19 16 -14 18 -35 18
-194 0 -224 14 -209 -197 -209 -140 0 -153 -2 -163 -19 -7 -15 -6 -23 6 -35
12 -13 39 -16 126 -16 l110 0 -4 -101 c-3 -99 -3 -101 -36 -130 l-32 -29 -571
0 c-389 0 -577 3 -591 11 -26 14 -48 67 -41 101 3 14 16 37 30 50 23 22 33 23
210 28 180 5 185 6 204 29 11 13 22 34 25 47 8 31 -13 81 -40 97 -15 9 -131
13 -404 17 l-384 5 -24 28 c-34 40 -33 99 2 132 l27 25 236 0 c262 0 275 3
304 62 16 33 17 40 3 71 -8 20 -23 40 -34 46 -13 7 -88 11 -191 11 l-171 0 0
144 c0 136 1 146 23 170 18 21 103 50 487 165 256 77 475 140 488 140 13 1 34
-10 47 -24z m-1204 -1750 c43 -93 87 -191 98 -217 l20 -48 -43 0 c-41 0 -43 1
-63 50 l-21 50 -110 0 -109 0 -21 -50 c-20 -49 -22 -50 -63 -50 -29 0 -40 4
-36 13 2 6 46 106 98 220 l93 208 40 -3 40 -3 77 -170z m355 30 c59 -100 90
-142 95 -133 5 7 44 73 86 146 75 127 79 132 110 132 l33 0 0 -220 0 -220 -40
0 -39 0 -3 137 -3 137 -65 -109 c-45 -75 -72 -111 -86 -113 -17 -2 -34 19 -90
112 l-69 115 -3 -140 -3 -139 -39 0 -40 0 0 213 c0 118 3 217 7 220 3 4 19 7
34 7 25 0 36 -14 115 -145z m754 119 c98 -57 109 -199 19 -253 l-29 -18 50
-71 51 -72 -45 0 c-43 0 -45 2 -91 65 l-46 65 -55 0 -54 0 0 -65 0 -65 -40 0
-40 0 0 221 0 221 123 -4 c100 -3 129 -8 157 -24z m520 -9 l0 -35 -120 0 -120
0 0 -55 0 -55 105 0 105 0 0 -35 0 -35 -105 0 -105 0 0 -60 0 -60 125 0 125 0
0 -35 0 -35 -165 0 -165 0 0 220 0 220 160 0 160 0 0 -35z m440 0 l0 -34 -72
-3 -73 -3 -3 -182 -2 -183 -40 0 -40 0 0 185 0 185 -70 0 -70 0 0 35 0 35 185
0 185 0 0 -35z m-2321 -600 c42 -91 45 -105 27 -105 -8 0 -18 9 -21 20 -5 16
-15 20 -50 20 -35 0 -45 -4 -50 -20 -3 -11 -15 -20 -25 -20 -17 0 -15 8 18 85
46 106 61 109 101 20z m229 49 c51 -35 14 -104 -55 -104 -29 0 -33 -3 -33 -25
0 -16 -6 -25 -15 -25 -12 0 -15 16 -15 85 l0 85 48 0 c27 0 57 -7 70 -16z
m132 -54 l0 -70 40 0 c29 0 40 -4 40 -15 0 -12 -13 -15 -60 -15 l-60 0 0 85
c0 78 2 85 20 85 18 0 20 -7 20 -70z m180 -15 c0 -69 -3 -85 -15 -85 -12 0
-15 16 -15 85 0 69 3 85 15 85 12 0 15 -16 15 -85z m216 70 c21 -16 19 -17
-46 -19 -36 -1 -47 -5 -59 -27 -13 -24 -13 -29 3 -54 16 -25 22 -27 62 -21 47
6 66 -7 35 -23 -36 -20 -86 -13 -115 15 -37 38 -32 97 13 131 22 17 83 16 107
-2z m205 -72 c34 -75 36 -83 19 -83 -10 0 -22 9 -25 20 -5 16 -15 20 -50 20
-35 0 -45 -4 -50 -20 -6 -19 -35 -29 -35 -11 0 5 16 43 35 85 26 57 40 77 52
74 9 -2 32 -37 54 -85z m223 81 c9 -3 16 -12 16 -20 0 -11 -9 -13 -40 -8 -47
8 -80 -14 -80 -51 0 -37 33 -59 80 -51 31 5 40 3 40 -8 0 -35 -91 -36 -125 -1
-71 70 13 176 109 139z m126 -79 c0 -78 -2 -85 -20 -85 -18 0 -20 7 -20 85 0
78 2 85 20 85 18 0 20 -7 20 -85z m225 60 c36 -35 35 -96 -1 -124 -69 -54
-170 3 -150 84 16 65 104 88 151 40z m170 -28 l40 -52 3 53 c3 44 6 52 23 52
17 0 19 -7 19 -85 0 -61 -3 -85 -12 -85 -7 0 -34 23 -60 52 l-47 53 -1 -52 c0
-46 -3 -53 -20 -53 -18 0 -20 7 -20 85 0 74 2 85 18 85 9 -1 35 -24 57 -53z
m410 30 c21 -17 27 -32 27 -62 0 -57 -35 -85 -108 -85 l-54 0 0 85 0 85 54 0
c43 0 61 -5 81 -23z m225 8 c0 -11 -12 -15 -45 -15 -38 0 -45 -3 -45 -20 0
-17 7 -20 40 -20 29 0 40 -4 40 -15 0 -11 -11 -15 -40 -15 -33 0 -40 -3 -40
-19 0 -17 8 -20 47 -23 26 -2 48 -9 51 -15 3 -10 -14 -13 -62 -13 l-66 0 0 85
0 85 60 0 c47 0 60 -3 60 -15z m-1922 -341 c26 -18 29 -60 6 -85 -14 -16 -14
-20 1 -43 17 -25 16 -26 -2 -26 -11 0 -26 11 -33 25 -8 16 -22 25 -37 25 -18
0 -23 -5 -23 -25 0 -16 -6 -25 -15 -25 -12 0 -15 16 -15 85 l0 85 48 0 c27 0
57 -7 70 -16z m222 1 c0 -11 -12 -15 -45 -15 -38 0 -45 -3 -45 -20 0 -17 7
-20 41 -20 52 0 48 -24 -4 -28 -29 -3 -37 -7 -37 -23 0 -16 7 -19 45 -19 33 0
45 -4 45 -15 0 -12 -14 -15 -65 -15 l-65 0 0 85 0 85 65 0 c51 0 65 -3 65 -15z
m201 4 c30 -16 13 -28 -31 -22 -49 7 -70 -8 -70 -52 0 -44 21 -59 70 -52 44 6
61 -6 31 -22 -40 -22 -87 -13 -115 20 -14 17 -26 41 -26 54 0 13 12 37 26 54
28 33 75 42 115 20z m198 -41 c12 -29 29 -68 37 -85 13 -31 13 -33 -5 -33 -10
0 -21 9 -24 20 -4 16 -14 20 -50 20 -36 0 -46 -4 -50 -20 -3 -11 -12 -20 -21
-20 -21 0 -21 -1 20 90 45 97 61 102 93 28z m244 21 c16 -23 17 -30 7 -50 -7
-13 -17 -27 -22 -30 -5 -3 1 -18 12 -32 21 -26 21 -27 2 -27 -11 0 -27 11 -36
25 -9 14 -25 25 -36 25 -15 0 -20 -7 -20 -25 0 -18 -5 -25 -20 -25 -18 0 -20
7 -20 85 l0 86 56 -3 c48 -3 60 -7 77 -29z m211 25 c9 -3 16 -12 16 -20 0 -10
-10 -12 -43 -8 -33 5 -47 2 -60 -11 -37 -36 -11 -95 43 -95 24 0 29 5 32 27 2
14 9 28 16 31 19 6 16 -74 -4 -82 -32 -12 -82 -5 -108 15 -21 16 -26 29 -26
64 0 35 5 48 26 64 26 20 76 27 108 15z m215 -59 c42 -91 45 -105 27 -105 -8
0 -18 9 -21 20 -5 16 -15 20 -50 20 -35 0 -45 -4 -50 -20 -3 -11 -15 -20 -25
-20 -17 0 -15 8 18 85 46 106 61 109 101 20z m216 55 c11 -18 -5 -30 -28 -21
-31 11 -59 2 -55 -17 2 -10 19 -20 41 -25 82 -20 68 -97 -17 -97 -49 0 -76 14
-60 30 7 7 20 8 35 2 33 -12 61 -4 57 16 -2 9 -19 20 -41 25 -48 12 -64 39
-42 73 12 19 24 24 60 24 24 0 47 -4 50 -10z"/>
<path d="M2866 2981 c-92 -61 -87 -200 8 -245 28 -13 72 -16 250 -16 l216 0 0
140 0 140 -222 0 c-202 0 -226 -2 -252 -19z m114 -81 c11 -11 20 -29 20 -40 0
-25 -34 -60 -58 -60 -32 0 -62 29 -62 60 0 53 62 78 100 40z"/>
<path d="M1512 1990 c-6 -14 -22 -51 -36 -84 -14 -32 -26 -62 -26 -67 0 -5 34
-9 75 -9 41 0 75 2 75 4 0 2 -18 43 -39 92 -37 82 -41 87 -49 64z"/>
<path d="M2550 1941 l0 -91 43 0 c64 1 120 17 140 41 24 29 21 73 -6 105 -21
24 -32 27 -100 32 l-77 5 0 -92z"/>
<path d="M1331 1467 c-16 -41 -14 -47 14 -47 28 0 31 13 10 50 l-13 25 -11
-28z"/>
<path d="M1530 1470 c0 -27 3 -30 34 -30 21 0 36 6 40 15 10 28 -5 45 -40 45
-31 0 -34 -3 -34 -30z"/>
<path d="M2282 1465 c-17 -38 -15 -45 14 -45 24 0 25 3 19 28 -10 40 -20 46
-33 17z"/>
<path d="M2813 1474 c-15 -24 -15 -29 -2 -53 29 -51 109 -33 109 24 0 56 -76
76 -107 29z"/>
<path d="M3400 1445 l0 -55 34 0 c40 0 66 22 66 55 0 33 -26 55 -66 55 l-34 0
0 -55z"/>
<path d="M1720 1130 c0 -27 3 -30 34 -30 21 0 36 6 40 15 10 28 -5 45 -40 45
-31 0 -34 -3 -34 -30z"/>
<path d="M2372 1120 c-15 -42 -16 -40 13 -40 28 0 34 24 12 55 -13 17 -15 16
-25 -15z"/>
<path d="M2580 1130 c0 -29 2 -31 33 -28 27 2 32 7 32 28 0 21 -5 26 -32 28
-31 3 -33 1 -33 -28z"/>
<path d="M3041 1127 c-16 -41 -14 -47 14 -47 28 0 31 13 10 50 l-13 25 -11
-28z"/>
</g>
</svg>
