<?xml version="1.0" standalone="no"?>
<!DOCTYPE svg PUBLIC "-//W3C//DTD SVG 20010904//EN"
 "http://www.w3.org/TR/2001/REC-SVG-20010904/DTD/svg10.dtd">
<svg version="1.0" xmlns="http://www.w3.org/2000/svg"
 width="500.000000pt" height="500.000000pt" viewBox="0 0 500.000000 500.000000"
 preserveAspectRatio="xMidYMid meet">

<g transform="translate(0.000000,500.000000) scale(0.100000,-0.100000)"
fill="#000000" stroke="none">
<path d="M2310 3559 c-384 -115 -469 -144 -487 -165 -22 -24 -23 -34 -23 -169
l0 -144 172 0 c152 0 175 -2 197 -19 47 -35 49 -101 4 -144 -24 -23 -28 -23
-273 -26 l-248 -3 -26 -26 c-35 -34 -36 -91 -2 -130 l24 -28 392 -5 392 -5 19
-24 c27 -33 33 -66 19 -101 -22 -53 -30 -55 -226 -60 -180 -5 -184 -6 -208
-30 -38 -39 -39 -98 -1 -135 l24 -25 573 0 c504 0 576 2 596 16 39 27 52 67
52 159 l0 85 -109 0 c-86 0 -113 3 -125 16 -19 19 -20 26 -4 42 8 8 59 12 163
12 209 0 195 -15 195 209 0 160 -2 180 -18 194 -16 15 -48 17 -235 17 -197 0
-217 2 -226 18 -6 11 -6 24 0 35 9 15 30 17 184 17 l175 0 0 88 c0 94 -10 124
-51 155 -26 19 -45 19 -544 19 -284 0 -515 2 -512 4 2 2 87 13 188 24 101 11
200 22 219 24 19 3 92 10 163 17 l127 12 0 84 c0 76 -2 86 -25 108 -13 14 -34
25 -47 24 -13 0 -232 -63 -488 -140z m1030 -699 l0 -140 -216 0 c-178 0 -222
3 -250 16 -95 45 -100 184 -8 245 26 17 50 19 252 19 l222 0 0 -140z"/>
<path d="M2902 2904 c-44 -31 -16 -104 40 -104 24 0 58 35 58 60 0 25 -34 60
-58 60 -10 0 -28 -7 -40 -16z"/>
<path d="M1390 1889 c-52 -116 -96 -215 -98 -220 -2 -5 15 -9 38 -9 40 0 42 1
62 50 l21 50 109 0 110 0 21 -50 c20 -49 22 -50 63 -50 l43 0 -14 33 c-7 17
-51 115 -98 217 l-83 185 -40 3 -39 3 -95 -212z m174 32 c20 -47 36 -88 36
-93 0 -4 -34 -8 -75 -8 -87 0 -87 0 -49 86 14 33 30 70 35 83 5 13 11 22 13
20 2 -2 20 -42 40 -88z"/>
<path d="M1847 2093 c-4 -3 -7 -102 -7 -220 l0 -213 40 0 39 0 3 140 3 140 70
-116 c55 -91 73 -114 89 -112 14 2 42 39 86 113 l65 109 3 -137 3 -137 39 0
40 0 0 220 0 220 -32 0 c-31 0 -36 -6 -96 -108 -34 -59 -73 -125 -86 -146
l-23 -39 -88 147 c-78 130 -91 146 -115 146 -15 0 -30 -3 -33 -7z"/>
<path d="M2470 1881 l0 -221 40 0 40 0 0 65 0 66 57 -3 57 -3 44 -62 c42 -61
45 -63 88 -63 l44 0 -51 71 c-28 39 -49 72 -47 73 2 1 16 10 31 20 57 36 75
136 34 197 -37 56 -85 72 -219 77 l-118 4 0 -221z m257 115 c13 -15 23 -39 23
-54 0 -60 -53 -92 -152 -92 l-48 0 0 91 0 92 77 -5 c68 -5 79 -8 100 -32z"/>
<path d="M2950 1880 l0 -220 166 0 165 0 -3 33 -3 32 -122 3 -123 3 0 59 0 60
105 0 105 0 0 30 0 30 -105 0 -105 0 0 60 0 60 121 0 120 0 -3 33 -3 32 -157
3 -158 3 0 -221z"/>
<path d="M3340 2065 l0 -35 70 0 70 0 0 -185 0 -185 40 0 40 0 0 185 0 185 76
0 75 0 -3 33 -3 32 -182 3 -183 2 0 -35z"/>
<path d="M1294 1453 c-20 -42 -38 -81 -40 -85 -3 -4 4 -8 14 -8 11 0 22 9 25
20 4 16 14 20 50 20 37 0 47 -4 52 -20 3 -11 13 -20 21 -20 18 0 14 16 -28
106 -17 36 -36 64 -45 64 -8 0 -29 -32 -49 -77z m76 -20 c0 -7 -11 -13 -25
-13 -28 0 -32 18 -14 52 11 21 12 21 25 -3 7 -13 13 -30 14 -36z"/>
<path d="M1500 1445 c0 -69 3 -85 15 -85 9 0 15 9 15 25 0 22 4 25 35 25 39 0
75 28 75 60 0 37 -35 60 -90 60 l-50 0 0 -85z m105 25 c0 -22 -5 -25 -37 -28
-36 -3 -38 -2 -38 28 0 30 2 31 38 28 32 -3 37 -6 37 -28z"/>
<path d="M1710 1445 l0 -85 60 0 c47 0 60 3 60 15 0 11 -12 15 -45 15 l-45 0
0 70 c0 56 -3 70 -15 70 -12 0 -15 -16 -15 -85z"/>
<path d="M1900 1445 c0 -69 3 -85 15 -85 12 0 15 16 15 85 0 69 -3 85 -15 85
-12 0 -15 -16 -15 -85z"/>
<path d="M2032 1510 c-41 -38 -40 -92 1 -130 25 -24 85 -27 113 -5 21 16 19
17 -46 19 -36 1 -47 5 -59 27 -13 24 -13 29 3 54 16 25 22 27 62 22 48 -5 66
6 35 22 -32 18 -85 13 -109 -9z"/>
<path d="M2251 1466 c-42 -92 -45 -106 -27 -106 8 0 18 9 21 20 5 16 15 20 50
20 35 0 45 -4 50 -20 3 -11 15 -20 25 -20 17 0 15 8 -19 83 -21 47 -45 83 -54
85 -11 2 -25 -16 -46 -62z m64 -18 c6 -25 5 -28 -19 -28 -29 0 -31 7 -14 45
13 29 23 23 33 -17z"/>
<path d="M2465 1505 c-55 -55 -16 -145 63 -145 35 0 62 14 62 32 0 4 -19 5
-43 2 -50 -7 -77 11 -77 51 0 40 27 58 77 51 44 -6 53 0 31 22 -22 22 -86 14
-113 -13z"/>
<path d="M2670 1445 c0 -69 3 -85 15 -85 12 0 15 16 15 85 0 69 -3 85 -15 85
-12 0 -15 -16 -15 -85z"/>
<path d="M2809 1517 c-44 -34 -49 -83 -13 -126 53 -63 154 -28 154 54 0 50
-36 85 -87 85 -21 0 -45 -6 -54 -13z m103 -42 c8 -18 9 -35 2 -53 -8 -23 -15
-27 -49 -27 -32 0 -42 5 -54 26 -13 24 -13 29 2 53 25 37 82 37 99 1z"/>
<path d="M3030 1445 c0 -69 3 -85 15 -85 12 0 15 13 15 56 l0 56 46 -56 c64
-79 74 -75 74 29 0 68 -3 85 -15 85 -10 0 -15 -15 -17 -57 l-3 -58 -45 57
c-25 31 -51 57 -57 57 -10 1 -13 -22 -13 -84z"/>
<path d="M3370 1445 l0 -85 54 0 c74 0 106 25 106 85 0 60 -32 85 -106 85
l-54 0 0 -85z m118 43 c7 -7 12 -26 12 -43 0 -41 -16 -55 -62 -55 l-38 0 0 55
0 55 38 0 c21 0 43 -5 50 -12z"/>
<path d="M3610 1445 l0 -85 66 0 c48 0 65 3 62 13 -3 6 -25 13 -51 15 -39 3
-47 6 -47 23 0 16 7 19 40 19 29 0 40 4 40 15 0 11 -11 15 -40 15 -33 0 -40 3
-40 20 0 17 7 20 45 20 33 0 45 4 45 15 0 12 -13 15 -60 15 l-60 0 0 -85z"/>
<path d="M1690 1105 c0 -69 3 -85 15 -85 9 0 15 9 15 25 0 19 5 25 21 25 12 0
30 -11 41 -25 11 -14 26 -25 35 -25 13 0 13 3 -1 25 -15 23 -15 28 -1 47 36
53 2 98 -75 98 l-50 0 0 -85z m105 25 c0 -22 -5 -25 -37 -28 -36 -3 -38 -2
-38 28 0 30 2 31 38 28 32 -3 37 -6 37 -28z"/>
<path d="M1900 1105 l0 -85 65 0 c51 0 65 3 65 15 0 11 -12 15 -50 15 -43 0
-50 3 -50 19 0 16 8 20 42 23 59 4 63 28 4 28 -39 0 -46 3 -46 19 0 17 8 20
47 23 26 2 48 9 51 16 3 9 -14 12 -62 12 l-66 0 0 -85z"/>
<path d="M2124 1166 c-21 -18 -28 -32 -28 -61 0 -65 75 -107 135 -74 30 16 13
28 -31 22 -49 -7 -70 8 -70 52 0 44 21 59 70 52 44 -6 61 6 31 22 -33 18 -78
13 -107 -13z"/>
<path d="M2340 1118 c-45 -101 -44 -98 -25 -98 9 0 19 9 22 20 8 30 85 29 105
-1 8 -12 19 -20 25 -18 17 6 -58 169 -78 169 -11 0 -28 -25 -49 -72z m65 2
c20 -39 20 -40 -15 -40 -16 0 -30 2 -30 4 0 8 22 66 26 66 2 0 10 -13 19 -30z"/>
<path d="M2540 1105 c0 -69 3 -85 15 -85 9 0 15 9 15 25 0 20 5 25 25 25 15 0
31 -9 41 -25 9 -14 23 -25 30 -25 18 0 18 5 -1 34 -14 21 -14 24 0 36 23 19
19 66 -7 84 -13 9 -43 16 -70 16 l-48 0 0 -85z m105 25 c0 -22 -5 -25 -37 -28
-36 -3 -38 -2 -38 28 0 30 2 31 38 28 32 -3 37 -6 37 -28z"/>
<path d="M2775 1165 c-54 -53 -16 -145 59 -145 56 0 66 8 66 52 0 46 -23 49
-28 4 -3 -25 -7 -27 -40 -24 -30 2 -38 8 -46 30 -7 19 -6 36 3 54 11 25 15 26
61 21 51 -6 60 -1 38 21 -22 22 -86 14 -113 -13z"/>
<path d="M3004 1113 c-20 -42 -38 -81 -40 -85 -3 -4 4 -8 14 -8 11 0 22 9 25
20 4 16 14 20 50 20 37 0 47 -4 52 -20 3 -11 13 -20 21 -20 18 0 14 16 -28
106 -17 36 -36 64 -45 64 -8 0 -29 -32 -49 -77z m76 -20 c0 -7 -11 -13 -25
-13 -28 0 -32 18 -14 52 11 21 12 21 25 -3 7 -13 13 -30 14 -36z"/>
<path d="M3218 1179 c-28 -16 -23 -63 7 -77 14 -7 32 -12 39 -12 8 0 19 -6 25
-14 19 -22 -21 -41 -59 -27 -34 11 -50 -3 -21 -18 36 -20 89 -13 106 13 25 38
12 54 -67 80 -10 3 -18 12 -18 20 0 17 34 31 50 21 6 -4 18 -4 28 0 14 5 14 7
2 15 -20 13 -71 12 -92 -1z"/>
</g>
</svg>
